<?xml version="1.0" encoding="utf-8"?>
<!-- Svg Vector Icons : http://www.onlinewebfonts.com/icon -->
<!DOCTYPE svg PUBLIC "-//W3C//DTD SVG 1.1//EN" "http://www.w3.org/Graphics/SVG/1.1/DTD/svg11.dtd">
<svg version="1.1" xmlns="http://www.w3.org/2000/svg" xmlns:xlink="http://www.w3.org/1999/xlink" x="0px" y="0px" viewBox="0 0 256 256" enable-background="new 0 0 256 256" xml:space="preserve">
<metadata> Svg Vector Icons : http://www.onlinewebfonts.com/icon </metadata>
<g><g><g><path fill="#000000" d="M114.7,11.6c-1.5,1.5-1.6,1.8-1.6,4.8v3.3H98.4H83.6v5.1v5.1H65c-17.3,0-18.8,0-21,0.9c-3.6,1.4-6.2,3.8-7.9,7.3c-1.2,2.6-1.5,3.5-1.5,6.4c0,5.9,3.2,10.9,8.9,13.6l2.5,1.2l18.8,0.1l18.8,0.1V69v9.6H66c-19,0-21.1,0.2-24.6,2.5C38,83.3,36,86.1,35,90.3c-1.8,7,2.2,14.4,9,17.1c2.2,0.8,3.7,0.9,21,0.9h18.7v5.1v5.1h14.8h14.8v27.4c0,24,0.1,27.7,0.7,28.9c1.4,2.7,1.2,2.7,31.1,2.7h27.2v12.8c0,11.8,0.1,12.9,0.9,14.2c0.6,0.9,1.6,1.7,2.5,2l1.7,0.6v19.5V246H192h14.8v-19.6v-19.6l1.6-0.6c3-1.2,3-1.3,3-15.8v-13h2.8c1.6,0,3.5-0.3,4.3-0.7c3.2-1.5,3,4.8,3-82.9c0-67.3-0.1-79.4-0.6-80.7c-1.3-3.2,2-3-54-3h-50.5L114.7,11.6z M211.3,93.4v73.8h-44.3h-44.2V93.8c0-40.4,0.1-73.6,0.3-73.7c0.1-0.2,20.1-0.3,44.3-0.3h43.9L211.3,93.4L211.3,93.4z M113.1,69v39.2h-9.9h-9.9V69V29.8h9.9h9.9V69z M54.1,44.3v4.8h-3.5c-3.2,0-3.6-0.1-4.8-1.3c-1-1.1-1.3-1.8-1.3-3.1c0-3.7,1.9-5.2,6.6-5.2h3.1V44.3z M83.6,44.3v4.8h-9.9h-9.9v-4.8v-4.8h9.9h9.9V44.3z M54.1,93.7v4.8h-3c-4.7,0-6.6-1.6-6.6-5.3c0-1.2,0.4-2,1.3-3c1.2-1.2,1.6-1.3,4.8-1.3h3.5V93.7z M83.6,93.7v4.8h-9.9h-9.9v-4.8v-4.8h9.9h9.9V93.7z M198.5,178.5c-2.5,2.1-2.2,5.9,0.6,7.7c0.8,0.5,1.2,0.9,0.9,0.9c-0.9,0-2.9,2.3-3.2,3.7c-0.4,1.8,0.9,4.4,2.7,5.3c1.4,0.7,1,0.7-7.3,0.7c-7.5,0-8.6-0.1-7.7-0.6c1.4-0.8,2.3-2.4,2.3-4.4c0-1.2-0.4-1.9-1.6-3.1c-1.5-1.5-1.5-1.6-0.7-2c1.1-0.6,2.3-2.8,2.3-4.2c0-1.7-1.4-3.7-2.9-4.4c-1.3-0.6-0.6-0.6,7.2-0.7h8.7L198.5,178.5z M196.6,221.6v14.7h-4.8h-4.8v-14.7v-14.8h4.8h4.8V221.6z"/><path fill="#000000" d="M129.5,26.3c-1.1,1.1-1.6,2-1.6,3c0,2,1.1,3.9,2.5,4.6c0.9,0.4,9.5,0.6,33.6,0.6h32.5v61.8c0,68.5-0.2,64.1,3,65.6c1.9,0.9,2.3,0.9,4.1,0c3.2-1.5,3,3.2,3-68.1c0-54.6-0.1-64.6-0.6-66c-1.3-3.1,0.5-3-39.3-3H131L129.5,26.3z"/></g></g></g>
</svg>