<?xml version="1.0" encoding="utf-8"?>
<!-- Svg Vector Icons : http://www.onlinewebfonts.com/icon -->
<!DOCTYPE svg PUBLIC "-//W3C//DTD SVG 1.1//EN" "http://www.w3.org/Graphics/SVG/1.1/DTD/svg11.dtd">
<svg version="1.1" xmlns="http://www.w3.org/2000/svg" xmlns:xlink="http://www.w3.org/1999/xlink" x="0px" y="0px" viewBox="0 0 256 256" enable-background="new 0 0 256 256" xml:space="preserve">
<metadata> Svg Vector Icons : http://www.onlinewebfonts.com/icon </metadata>
<g><g><g><path fill="#000000" d="M118.9,15.6c-16.7,1.7-29.2,5.2-42.9,11.9c-15.4,7.6-28.3,17.8-39.3,31.1C25,72.7,15.9,91.6,12.4,109C10,120.7,10,120.5,10,162.9c0,39.5,0,39.8,1,41c2.2,3,2.9,3.2,9.9,3.2c7,0,7.7-0.2,9.9-3.2c0.9-1.2,1-1.9,1.1-21.4c0.1-13.4,0-20.7-0.4-21.9c-0.6-2.1-3.1-4.4-5.4-4.8l-1.7-0.3l0.2-16.4c0.2-13.9,0.4-17.3,1.2-22c4-22.4,13.4-40.8,29.1-56.6c16-16,35.1-25.6,58-29.4c7.1-1.1,22.9-1.1,30,0c23,3.7,42,13.3,58,29.3c13.3,13.4,22.2,28.8,26.9,46.8c2.8,10.5,3.1,14.1,3.4,32l0.2,16.2l-1.7,0.3c-2.2,0.4-4.8,2.7-5.4,4.8c-0.4,1.2-0.5,8.5-0.4,21.9c0.1,19.5,0.2,20.2,1.1,21.4c2.2,3,2.9,3.2,9.9,3.2c7,0,7.7-0.2,9.9-3.2c1-1.2,1-1.8,1.1-37.8c0.1-23.4,0-38.6-0.4-42.4C243.2,95,230.7,68.9,210,48.8c-18.2-17.6-40.1-28.4-65.5-32.3C139.9,15.8,122.9,15.2,118.9,15.6z"/><path fill="#000000" d="M56,123.1c-7.8,2.1-13.9,8.3-16,16.2c-1,4-1,80.3,0,84.3c2.1,8,8.2,14.2,16.2,16.2c11.6,3,23.7-4.3,26.8-16.2c1-4,1-80.3,0-84.3C79.8,127.4,67.5,120,56,123.1z"/><path fill="#000000" d="M188.9,123.1c-7.8,2.1-13.9,8.3-16,16.2c-0.6,2.3-0.7,8.6-0.7,42c0,27.4,0.1,40.1,0.5,41.8c1.7,7.8,8.3,14.6,16.3,16.8c11.6,3,23.7-4.3,26.8-16.2c1-4,1-80.3,0-84.3C212.7,127.4,200.5,120,188.9,123.1z"/></g></g></g>
</svg>