<?xml version="1.0" encoding="utf-8"?>
<!-- Svg Vector Icons : http://www.onlinewebfonts.com/icon -->
<!DOCTYPE svg PUBLIC "-//W3C//DTD SVG 1.1//EN" "http://www.w3.org/Graphics/SVG/1.1/DTD/svg11.dtd">
<svg version="1.1" xmlns="http://www.w3.org/2000/svg" xmlns:xlink="http://www.w3.org/1999/xlink" x="0px" y="0px" viewBox="0 0 256 256" enable-background="new 0 0 256 256" xml:space="preserve">
<metadata> Svg Vector Icons : http://www.onlinewebfonts.com/icon </metadata>
<g><g><path fill="#000000" d="M237.9,110.4H63.3v-6.7c0.1-3.2,1.5-19.3,21.1-19.3h76.8c14.4-0.5,41.8-8.3,42.5-34.8v-29c0-3.6-2.9-6.5-6.5-6.5c-3.6,0-6.5,2.9-6.5,6.5v28.9c-0.6,20.7-28.8,22-29.7,22H84.4c-26.6,0-33.9,21-34.1,32.1v6.8H18.1c-4.5,0-8.1,3.7-8.1,8.1v115.3c0,4.5,3.6,8.1,8.1,8.1h219.8c4.5,0,8.1-3.6,8.1-8.1V118.5C246,114.1,242.4,110.4,237.9,110.4z M229.8,225.7H26.2v-99h203.6V225.7z M76,185.8h2.6c4.5,0,8.1-3.6,8.1-8.1v-2.6c0-4.5-3.6-8.1-8.1-8.1H76c-4.5,0-8.1,3.6-8.1,8.1v2.6C67.9,182.2,71.5,185.8,76,185.8z M81.5,204.4v2.6c0,4.5,3.6,8.1,8.1,8.1h77c4.5,0,8.1-3.6,8.1-8.1v-2.6c0-4.5-3.6-8.1-8.1-8.1h-77C85.2,196.3,81.5,200,81.5,204.4z M101.5,185.8h2.6c4.5,0,8.1-3.6,8.1-8.1v-2.6c0-4.5-3.6-8.1-8.1-8.1h-2.6c-4.5,0-8.1,3.6-8.1,8.1v2.6C93.4,182.2,97.1,185.8,101.5,185.8z M127.1,185.8h2.6c4.5,0,8.1-3.6,8.1-8.1v-2.6c0-4.5-3.6-8.1-8.1-8.1h-2.6c-4.5,0-8.1,3.6-8.1,8.1v2.6C118.9,182.2,122.6,185.8,127.1,185.8z M152.6,185.8h2.6c4.5,0,8.1-3.6,8.1-8.1v-2.6c0-4.5-3.6-8.1-8.1-8.1h-2.6c-4.5,0-8.1,3.6-8.1,8.1v2.6C144.5,182.2,148.1,185.8,152.6,185.8z M178.1,185.8h2.6c4.5,0,8.1-3.6,8.1-8.1v-2.6c0-4.5-3.6-8.1-8.1-8.1h-2.6c-4.5,0-8.1,3.6-8.1,8.1v2.6C170,182.2,173.6,185.8,178.1,185.8z M50.5,157.1h2.6c4.5,0,8.1-3.6,8.1-8.1v-2.6c0-4.5-3.6-8.1-8.1-8.1h-2.6c-4.5,0-8.1,3.6-8.1,8.1v2.6C42.3,153.4,46,157.1,50.5,157.1z M76,157.1h2.6c4.5,0,8.1-3.6,8.1-8.1v-2.6c0-4.5-3.6-8.1-8.1-8.1H76c-4.5,0-8.1,3.6-8.1,8.1v2.6C67.9,153.4,71.5,157.1,76,157.1z M101.5,157.1h2.6c4.5,0,8.1-3.6,8.1-8.1v-2.6c0-4.5-3.6-8.1-8.1-8.1h-2.6c-4.5,0-8.1,3.6-8.1,8.1v2.6C93.4,153.4,97.1,157.1,101.5,157.1z M127.1,157.1h2.6c4.5,0,8.1-3.6,8.1-8.1v-2.6c0-4.5-3.6-8.1-8.1-8.1h-2.6c-4.5,0-8.1,3.6-8.1,8.1v2.6C118.9,153.4,122.6,157.1,127.1,157.1z M152.6,157.1h2.6c4.5,0,8.1-3.6,8.1-8.1v-2.6c0-4.5-3.6-8.1-8.1-8.1h-2.6c-4.5,0-8.1,3.6-8.1,8.1v2.6C144.5,153.4,148.1,157.1,152.6,157.1z M178.1,157.1h2.6c4.5,0,8.1-3.6,8.1-8.1v-2.6c0-4.5-3.6-8.1-8.1-8.1h-2.6c-4.5,0-8.1,3.6-8.1,8.1v2.6C170,153.4,173.6,157.1,178.1,157.1z M203.6,157.1h2.6c4.5,0,8.1-3.6,8.1-8.1v-2.6c0-4.5-3.6-8.1-8.1-8.1h-2.6c-4.5,0-8.1,3.6-8.1,8.1v2.6C195.5,153.4,199.2,157.1,203.6,157.1z"/></g></g>
</svg>