<?xml version="1.0" encoding="utf-8"?>
<!-- Svg Vector Icons : http://www.onlinewebfonts.com/icon -->
<!DOCTYPE svg PUBLIC "-//W3C//DTD SVG 1.1//EN" "http://www.w3.org/Graphics/SVG/1.1/DTD/svg11.dtd">
<svg version="1.1" xmlns="http://www.w3.org/2000/svg" xmlns:xlink="http://www.w3.org/1999/xlink" x="0px" y="0px" viewBox="0 0 256 256" enable-background="new 0 0 256 256" xml:space="preserve">
<metadata> Svg Vector Icons : http://www.onlinewebfonts.com/icon </metadata>
<g><g><g><path fill="#000000" d="M33.6,42.2c-4.6,1.4-8.3,4.7-10.5,9.5L22,54.2v70.2v70.1l-4.9,0.2c-4.7,0.1-4.9,0.2-6,1.4c-1.1,1.2-1.1,1.6-1.1,8.4v7.2l1.3,1.3l1.3,1.3H128h115.3l1.3-1.3l1.3-1.3v-7.2c0-6.9,0-7.2-1.1-8.4s-1.3-1.3-6-1.4l-4.9-0.2v-70.1V54.2l-1.3-2.9c-1.7-3.6-4.6-6.5-8.2-8.3l-2.7-1.3l-93.1-0.1C52.3,41.6,35.2,41.7,33.6,42.2z M222.8,50.5c0.7,0.5,1.7,1.5,2.2,2.2c1,1.2,1,1.4,1.1,71.5l0.1,70.2H128H29.8v-69.8c0-75.6-0.1-71,2.4-73.4c0.6-0.6,1.7-1.2,2.4-1.5c0.7-0.2,42.8-0.4,94.1-0.3l92.7,0.1L222.8,50.5z M238.1,204.7l0.1,1.8H128H17.8v-2v-1.9l110,0.1l110.1,0.1L238.1,204.7z"/><path fill="#000000" d="M35.4,53.8c-0.3,0.1-0.9,0.8-1.2,1.5c-0.6,1.2-0.7,9-0.7,59.2v57.8l1.1,1.3l1.1,1.3H128h92.2l1.1-1.1l1.1-1.1l0.1-57.7c0-31.7,0-58.2-0.1-58.8c-0.1-0.6-0.6-1.4-1.2-1.9c-0.9-0.9-1.9-0.9-93-0.9C77.5,53.5,35.8,53.7,35.4,53.8z M214.6,114.2l-0.1,52.9H128H41.6l-0.1-52.9l-0.1-52.9H128h86.7L214.6,114.2z"/><path fill="#000000" d="M62.2,81.8c-8.7,8.6-8.9,8.9-8.9,10.7c0,1.9,1.1,3.4,2.9,4c1.7,0.6,4-1.2,12.2-9.5c7.9-8,8.4-8.6,8.4-10.2c0-2.3-1.8-4-4.1-4C71.3,72.9,70.4,73.5,62.2,81.8z"/><path fill="#000000" d="M83.9,79.9c-6.4,6.4-7.1,7.2-7.1,8.6c0,1.8,0.6,2.8,2.2,3.6c2.4,1.3,3.2,0.8,9.9-5.8c8.3-8.2,9-9.5,6.4-12.1c-1-0.9-1.8-1.3-2.9-1.3C91.1,72.9,90.1,73.7,83.9,79.9z"/><path fill="#000000" d="M107.7,75.9c-2.7,2.6-3.2,3.3-3.2,4.6c0,2.1,0.6,3.1,2.3,3.8c2.1,0.8,3.2,0.3,6.5-3c2.5-2.6,3-3.3,3-4.7c0-1.3-0.3-1.9-1.3-2.8C112.7,72.1,111.3,72.4,107.7,75.9z"/><path fill="#000000" d="M72.1,111.5c-17.9,17.9-18.8,18.9-18.8,20.5c0,1.3,0.3,1.9,1.4,2.9c2.8,2.4,2.2,2.9,22.7-17.6c10.3-10.3,18.9-19.2,19-19.8c0.4-1.3-0.6-3.7-1.7-4.2c-0.5-0.3-1.5-0.5-2.4-0.5C91,92.7,89.3,94.2,72.1,111.5z"/><path fill="#000000" d="M58.3,105.5c-4.6,4.6-5,5.1-5,6.7c0,2.3,1.6,4,4,4c1.5,0,2.2-0.5,6.7-5c4.6-4.6,5-5.1,5-6.7c0-2.4-1.6-4-4-4C63.4,100.5,62.9,100.9,58.3,105.5z"/><path fill="#000000" d="M117.4,180.2c-1.5,1.5-1.7,2.7-0.6,4.6c1,2,2.8,2.3,11.3,2.3s10.3-0.4,11.3-2.3c1-1.9,0.8-3.1-0.6-4.6l-1.3-1.3H128h-9.3L117.4,180.2z"/></g></g></g>
</svg>