<?xml version="1.0" encoding="utf-8"?>
<!-- Svg Vector Icons : http://www.onlinewebfonts.com/icon -->
<!DOCTYPE svg PUBLIC "-//W3C//DTD SVG 1.1//EN" "http://www.w3.org/Graphics/SVG/1.1/DTD/svg11.dtd">
<svg version="1.1" xmlns="http://www.w3.org/2000/svg" xmlns:xlink="http://www.w3.org/1999/xlink" x="0px" y="0px" viewBox="0 0 256 256" enable-background="new 0 0 256 256" xml:space="preserve">
<metadata> Svg Vector Icons : http://www.onlinewebfonts.com/icon </metadata>
<g><g><g><path fill="#000000" d="M22.2,10.4c-5,1.6-8.6,4.7-10.7,9.3l-1.3,2.8L10,90c-0.1,60.5,0,67.9,0.6,70.1c1.6,5.6,5.8,9.8,11.4,11.4l2.6,0.7v34v34l1.1,1.8c0.6,1.2,1.7,2.2,3.1,2.9l2,1.1h41.9h41.8l2-1.1c1.4-0.7,2.4-1.7,3.1-3.1c1.1-2,1.1-2.2,1.1-17.4v-15.4h32.1h32.1l1.1-1.2c1.2-1.1,1.2-1.2,1.2-9.9c0-8.7,0-8.8-1.2-9.9l-1.1-1.2h-13.7h-13.6v-7.4v-7.4l38-0.1l37.9-0.1l2.8-1.3c3.6-1.7,6.7-4.8,8.4-8.4l1.3-2.8V91V22.5l-1.3-2.8c-1.7-3.6-4.8-6.7-8.4-8.4l-2.8-1.3L128.8,9.9C45.1,9.9,23.6,10,22.2,10.4z M234.7,18.8c1.1,0.7,2.4,2.2,2.9,3.2c1,1.8,1,2.1,1.1,57.5l0.1,55.7h-59.1h-59.1V120c0-15.2,0-15.4-1.1-17.4c-0.7-1.4-1.7-2.4-3.1-3.1l-2-1.1H72.8H30.9l-2,1c-1.5,0.8-2.4,1.6-3.1,3.1c-1,2-1,2.4-1,17.4v15.4H21h-3.7V80.3c0-37.3,0.2-55.6,0.5-56.8c0.6-2.2,3.6-5.2,5.6-5.8c1-0.3,40.7-0.4,105.5-0.4l103.9,0.1L234.7,18.8z M113.3,172.2v66.5H72.7H32.1v-66.5v-66.5h40.6h40.6L113.3,172.2L113.3,172.2z M24.7,153.5c0,10.1,0,10.8-0.8,10.8c-1.3,0-4.1-2.1-5.2-4c-1-1.6-1.1-2.3-1.2-9.7l-0.2-7.9H21h3.7L24.7,153.5L24.7,153.5z M238.7,150.4c-0.1,9-0.6,10.4-4,12.8l-2,1.4l-56,0.1l-56,0.1v-11.1v-11.1h59.1h59.1L238.7,150.4z M150.2,182.2c0,10,0,10,1.2,11.1l1.1,1.2h13.7h13.6v3.7v3.7h-29.5h-29.5V187v-14.8h14.8h14.8L150.2,182.2L150.2,182.2z"/><path fill="#000000" d="M43.7,114c-0.8,0.4-2.1,1.5-2.8,2.4l-1.2,1.6l-0.1,46.3c-0.1,51.6-0.3,48.2,3,50.8l1.6,1.2l28,0.1l28,0.1l1.8-1.1c1.2-0.6,2.2-1.7,2.9-3.1l1-2v-45.5c0-43.3,0-45.6-0.9-47.3c-0.5-1.1-1.6-2.4-2.4-3l-1.6-1.1l-27.9-0.1C48,113.2,45.1,113.3,43.7,114z M98.5,164.9v44.3H72.7H46.9v-44.3v-44.3h25.8h25.8L98.5,164.9L98.5,164.9z"/><path fill="#000000" d="M70.2,225.1c-2.3,2.3-0.7,6.2,2.5,6.2c1.9,0,3.7-1.8,3.7-3.7c0-1.9-1.8-3.7-3.7-3.7C71.8,223.9,70.9,224.3,70.2,225.1z"/><path fill="#000000" d="M217.8,151.2c-2.3,2.3-0.7,6.2,2.5,6.2c1.9,0,3.7-1.8,3.7-3.7c0-1.9-1.8-3.7-3.7-3.7C219.5,150.1,218.5,150.5,217.8,151.2z"/></g></g></g>
</svg>