<?xml version="1.0" encoding="utf-8"?>
<!-- Svg Vector Icons : http://www.onlinewebfonts.com/icon -->
<!DOCTYPE svg PUBLIC "-//W3C//DTD SVG 1.1//EN" "http://www.w3.org/Graphics/SVG/1.1/DTD/svg11.dtd">
<svg version="1.1" xmlns="http://www.w3.org/2000/svg" xmlns:xlink="http://www.w3.org/1999/xlink" x="0px" y="0px" viewBox="0 0 256 256" enable-background="new 0 0 256 256" xml:space="preserve">
<metadata> Svg Vector Icons : http://www.onlinewebfonts.com/icon </metadata>
<g><g><g><path fill="#000000" d="M20.9,19.8c-3.7,1.3-7.3,4.7-9.3,8.6L10,31.8v79.4c0,73,0.1,79.6,1,81.9c1.4,3.3,4.4,6.4,7.8,8c2.8,1.3,3.3,1.3,56.6,1.6l53.8,0.3l-15.2,4.8c-14.7,4.6-15.4,4.9-17.3,7.2c-3.7,4.4-10.9,8-17.9,9.1c-4.2,0.6-6.3,1.8-7.3,4.4c-1.2,2.8-0.6,5.3,1.7,7.3l1.8,1.5h52.4c56.9,0,55,0.1,56.6-3.4c2.1-4.6-0.3-8.5-5.9-9.6c-9.1-1.8-15.4-5.1-19.2-9.9c-2.2-2.7-4.3-7.8-4.3-10.2v-1.5l40-0.2c39.2-0.2,40-0.2,42.7-1.5c3.4-1.6,6.4-4.7,7.8-8c0.9-2.3,1-8.9,1-81.9V31.8l-1.7-3.4c-0.9-1.9-2.8-4.4-4.2-5.6c-5.1-4.4,3.2-4.1-112.4-4C38,18.9,23.1,19,20.9,19.8z M231,33.6c1.2,1.2,1.2,2,1.2,65.5c0,58.9-0.1,64.3-1,65.4c-0.9,1-5,1.1-103.3,1.1c-92.2,0-102.3-0.1-103.2-1c-0.9-0.9-1-7.6-1-65.4c0-63.6,0-64.4,1.2-65.6c1.2-1.2,2-1.2,103-1.2C229,32.4,229.8,32.4,231,33.6z M132.6,178.5c3.8,2.2,5.1,7.7,2.5,11.5c-2.2,3.3-7.2,4.9-10.4,3.3c-7.2-3.7-6.8-13.1,0.5-15.7C127.9,176.7,129.8,177,132.6,178.5z"/></g></g></g>
</svg>