<?xml version="1.0" encoding="utf-8"?>
<!-- Svg Vector Icons : http://www.onlinewebfonts.com/icon -->
<!DOCTYPE svg PUBLIC "-//W3C//DTD SVG 1.1//EN" "http://www.w3.org/Graphics/SVG/1.1/DTD/svg11.dtd">
<svg version="1.1" xmlns="http://www.w3.org/2000/svg" xmlns:xlink="http://www.w3.org/1999/xlink" x="0px" y="0px" viewBox="0 0 256 256" enable-background="new 0 0 256 256" xml:space="preserve">
<metadata> Svg Vector Icons : http://www.onlinewebfonts.com/icon </metadata>
<g><g><g><path fill="#000000" d="M31.2,19.7C22,22.6,14.1,30.8,11.1,40.4c-1.2,3.9-1.2,5.7-1.1,65.2l0.2,61.1l2.6,5.3c3,6,8.1,11.4,13.8,14.5c6.1,3.3,8.9,3.6,42.3,3.6c16.8,0,30.5,0.2,30.5,0.4s-1.8,4.5-3.8,9.5c-4.6,11.1-5.5,15.4-4.4,20.9c1.3,6.6,5.2,11.7,11.5,15c2.7,1.4,2.9,1.4,25.2,1.4c22.4,0,22.5,0,25.2-1.4c8.7-4.6,13.2-13.7,11.5-22.9c-0.4-2.1-2.4-8-4.5-13c-2.1-4.9-3.8-9.2-3.8-9.5c0-0.3,13.7-0.5,30.6-0.5c33.3,0,36.1-0.3,42.3-3.6c4.1-2.2,10.9-9,13.1-13.1c3.7-6.9,3.6-5.1,3.6-69.4c0-64.3,0.1-62.5-3.6-69.4c-2.7-5.1-8.6-10.6-14.3-13.4l-4.9-2.3l-94.2-0.1C40.2,18.6,34.5,18.6,31.2,19.7z M223.5,30.5c4.1,1.9,7.2,4.7,9.1,8.1l1.9,3.4l0.2,56.2l0.1,56.2H128H21.2l0.1-56.2L21.5,42l1.8-3.3c2.6-4.8,6.8-7.9,11.8-8.9c1.4-0.3,43.9-0.4,94.4-0.4C213.8,29.5,221.5,29.5,223.5,30.5z M234.1,166.1c0,1.6-4.2,7.4-6.4,9c-5.4,3.9,0,3.8-99.8,3.8c-99.7,0-94.3,0.2-99.7-3.8c-2.6-1.9-5.3-5.4-6.1-8l-0.4-1.4h106.1C186.3,165.7,234.1,165.8,234.1,166.1z M148.8,201.6c2.6,6.1,4.8,12.1,4.9,13.3c0.5,3.2-0.3,6.3-2.4,8.7c-2.9,3.3-5.6,3.6-25.7,3.3c-16.3-0.2-17.4-0.3-19-1.5c-2.9-2.2-4.2-4.4-4.5-7.9c-0.3-3.1,0.2-4.4,4.6-15.4l4.9-12l16.3,0.2l16.3,0.1L148.8,201.6z"/></g></g></g>
</svg>