<?xml version="1.0" encoding="utf-8"?>
<!-- Svg Vector Icons : http://www.onlinewebfonts.com/icon -->
<!DOCTYPE svg PUBLIC "-//W3C//DTD SVG 1.1//EN" "http://www.w3.org/Graphics/SVG/1.1/DTD/svg11.dtd">
<svg version="1.1" xmlns="http://www.w3.org/2000/svg" xmlns:xlink="http://www.w3.org/1999/xlink" x="0px" y="0px" viewBox="0 0 256 256" enable-background="new 0 0 256 256" xml:space="preserve">
<metadata> Svg Vector Icons : http://www.onlinewebfonts.com/icon </metadata>
<g><g><path fill="#000000" d="M73.5,120.9l-5.9,5.9c-1.5,1.5-1.5,3.9,0,5.4c0.7,0.7,1.7,1.1,2.7,1.1c1,0,1.9-0.4,2.7-1.1l5.9-5.9c1.5-1.5,1.5-3.9,0-5.4C77.4,119.4,75.1,119.4,73.5,120.9z"/><path fill="#000000" d="M58.9,135.6l-14.1,14.1c-16.1,16.1-15.6,41.7,1,58.4c0.7,0.7,1.7,1.1,2.7,1.1c1,0,1.9-0.4,2.7-1.1c1.5-1.5,1.5-3.9,0-5.4c-6.6-6.6-10.3-15.1-10.6-23.9c-0.2-8.9,3.2-17.3,9.6-23.7L64.2,141c1.5-1.5,1.5-3.9,0-5.4C62.8,134.1,60.3,134.1,58.9,135.6z"/><path fill="#000000" d="M245.3,13.7c-0.7-4.1-4.6-6.9-8.7-6.2c-4.1,0.7-6.9,4.6-6.3,8.7c0.7,4.6,1.4,18.2-4.4,25.8c-2.7,3.5-6.6,5.5-11.8,6c-20.7,2.1-31.4,11.7-36.6,19.3c-10.7-10.2-24.7-15.8-39.5-15.8c-15.3,0-29.8,6-40.6,16.8l-70.5,70.5c-22.4,22.4-22.4,58.9,0,81.3l11.7,11.7c10.9,10.9,25.3,16.8,40.6,16.8c15.3,0,29.8-6,40.6-16.8l70.5-70.5c22.4-22.4,22.4-58.9,0-81.3l-1.9-1.9c2.3-4.3,9.1-13.2,27.2-15c9.4-0.9,17.2-5.1,22.4-11.9C249.1,36.7,245.5,14.6,245.3,13.7z M108,79.1c8-8,18.6-12.4,29.9-12.4c11.3,0,21.9,4.4,29.9,12.4l3.2,3.2l-16,16c-4.5-2.1-10.3-1.5-13.9,2.2l-11.7,11.7c-2.3,2.3-3.5,5.3-3.5,8.6c0,1.9,0.5,3.7,1.3,5.4l-4.2,4.2c-13.6-13.9-26.2-28.2-30.6-35.5L108,79.1z M152.9,112.1l-11.7,11.7c-1.7,1.7-4.7,1.7-6.4,0c-0.9-0.9-1.3-2-1.3-3.2s0.5-2.3,1.3-3.2l11.7-11.7c0.9-0.9,2-1.3,3.2-1.3c1.2,0,2.3,0.5,3.2,1.3C154.6,107.5,154.6,110.4,152.9,112.1z M109.1,221.1c-8,8-18.6,12.4-29.9,12.4c-11.3,0-21.9-4.4-29.9-12.4l-11.7-11.7c-16.5-16.5-16.5-43.3,0-59.8l49.3-49.4c12,17.6,53.8,61.5,71.4,71.6L109.1,221.1z M179.6,150.6l-15.7,15.7c-4.9-1.4-20.2-15.1-35.7-30.5l4.3-4.3c1.7,0.8,3.5,1.3,5.4,1.3c3.2,0,6.3-1.3,8.6-3.5l11.7-11.7c3.8-3.8,4.5-9.4,2.2-14l15.9-15.9l3.2,3.2C196,107.3,196,134.1,179.6,150.6z"/></g></g>
</svg>