<?xml version="1.0" encoding="utf-8"?>
<!-- Svg Vector Icons : http://www.onlinewebfonts.com/icon -->
<!DOCTYPE svg PUBLIC "-//W3C//DTD SVG 1.1//EN" "http://www.w3.org/Graphics/SVG/1.1/DTD/svg11.dtd">
<svg version="1.1" xmlns="http://www.w3.org/2000/svg" xmlns:xlink="http://www.w3.org/1999/xlink" x="0px" y="0px" viewBox="0 0 256 256" enable-background="new 0 0 256 256" xml:space="preserve">
<metadata> Svg Vector Icons : http://www.onlinewebfonts.com/icon </metadata>
<g><g><g><path fill="#000000" d="M67.1,10.8c-5.7,1.5-11.4,6.1-14.1,11.2c-2.6,5.2-2.5-0.5-2.5,106c0,106.8-0.1,100.8,2.6,106.1c1.6,3.1,6.2,7.7,9.3,9.3c5.3,2.7,3.1,2.6,65.5,2.6c63.7,0,61,0.1,66.3-3c5.3-3.2,8.9-7.9,10.4-13.5c0.7-2.8,0.8-10,0.8-101.2c0-107,0.2-101-2.5-106.4c-1.6-3.1-6.2-7.7-9.3-9.3c-5.3-2.7-3.1-2.6-65.8-2.5C74.8,10,69.9,10.1,67.1,10.8z M187.1,25.8c0.8,0.6,2,1.8,2.6,2.6l1.1,1.6l-0.1,98.3l-0.1,98.3l-1,1.2c-0.5,0.7-1.5,1.7-2.2,2.2c-1.2,1-1.5,1-59,1.1l-57.8,0.1l-1.6-1.1c-0.8-0.6-2-1.8-2.6-2.6l-1.1-1.6V128V29.9l1.1-1.6c0.6-0.8,1.8-2,2.6-2.6l1.6-1.1H128h57.5L187.1,25.8z"/><path fill="#000000" d="M76.4,54.2v18.4H128h51.6V54.2V35.8H128H76.4V54.2z M168.6,54.2v7.4H128H87.4v-7.4v-7.4H128h40.6V54.2z"/><path fill="#000000" d="M76.4,102.2v18.4H128h51.6v-18.4V83.7H128H76.4V102.2z M168.6,102.2v7.4H128H87.4v-7.4v-7.4H128h40.6V102.2z"/><path fill="#000000" d="M123.5,176.8c-5,1.8-8.2,5.2-9.7,10.2c-1.9,6.6,1.6,14,8.1,17.1c2.1,1,3.3,1.2,6,1.2c5.9,0,10.8-3.1,13.3-8.5c2.5-5.3,1.2-12.2-2.9-16.4C134.6,176.6,128.3,175.1,123.5,176.8z"/></g></g></g>
</svg>