<?xml version="1.0" encoding="utf-8"?>
<!-- Svg Vector Icons : http://www.onlinewebfonts.com/icon -->
<!DOCTYPE svg PUBLIC "-//W3C//DTD SVG 1.1//EN" "http://www.w3.org/Graphics/SVG/1.1/DTD/svg11.dtd">
<svg version="1.1" xmlns="http://www.w3.org/2000/svg" xmlns:xlink="http://www.w3.org/1999/xlink" x="0px" y="0px" viewBox="0 0 256 256" enable-background="new 0 0 256 256" xml:space="preserve">
<metadata> Svg Vector Icons : http://www.onlinewebfonts.com/icon </metadata>
<g><g><path fill="#000000" d="M69,46.9H24.8c-8.2,0-14.8,6.6-14.8,14.8v162.2c0,8.1,6.6,14.8,14.8,14.8H69c8.1,0,14.8-6.6,14.8-14.8V61.6C83.8,53.5,77.1,46.9,69,46.9z M32.1,194.4c-4.1,0-7.4-3.3-7.4-7.4c0-4.1,3.3-7.4,7.4-7.4c4.1,0,7.4,3.3,7.4,7.4C39.5,191,36.2,194.4,32.1,194.4z M69,105.9H24.8V91.1H69V105.9z M69,76.4H24.8V61.6H69V76.4z"/><path fill="#000000" d="M164.9,209.1v-14.8h-44.2v14.8c-8.1,0-14.8,6.6-14.8,14.8h73.8C179.6,215.7,173,209.1,164.9,209.1z"/><path fill="#000000" d="M231.2,17.4h-177c-8.1,0-14.8,6.6-14.8,14.8h191.7v118H98.5v29.5h132.7c8.1,0,14.8-6.6,14.8-14.8V32.1C246,24,239.4,17.4,231.2,17.4z M142.7,172.2c-4.1,0-7.4-3.3-7.4-7.4c0-4.1,3.3-7.4,7.4-7.4s7.4,3.3,7.4,7.4C150.1,168.9,146.8,172.2,142.7,172.2z"/></g></g>
</svg>