<?xml version="1.0" encoding="utf-8"?>
<!-- Svg Vector Icons : http://www.onlinewebfonts.com/icon -->
<!DOCTYPE svg PUBLIC "-//W3C//DTD SVG 1.1//EN" "http://www.w3.org/Graphics/SVG/1.1/DTD/svg11.dtd">
<svg version="1.1" xmlns="http://www.w3.org/2000/svg" xmlns:xlink="http://www.w3.org/1999/xlink" x="0px" y="0px" viewBox="0 0 256 256" enable-background="new 0 0 256 256" xml:space="preserve">
<metadata> Svg Vector Icons : http://www.onlinewebfonts.com/icon </metadata>
<g><g><g><path fill="#000000" d="M94.5,11c-2.6,1-5.1,2.8-7.3,5c-2,2.1-4.4,7.4-4.7,10.5c-0.1,1.5,0.1,13.5,0.6,26.8c2.3,68.4,2.3,78.4,0,150.4c-0.8,24.6-0.8,26.4,0,29c1.2,3.8,4.1,7.7,7.1,9.9c5.1,3.5,3.9,3.4,37.9,3.4c29.9,0,30.8-0.1,33.6-1.1c5.6-2.1,9.7-6.5,11.3-12.2c0.8-2.6,0.8-4.9,0-28.8c-2.3-71.7-2.3-80.1,0-152c0.8-24.7,0.8-26.1-0.1-28.8c-1.7-5.5-6.1-10.1-11.3-12.1c-2.7-1-3.8-1-33.7-1C98.9,10.1,96.8,10.1,94.5,11z M117.2,41.5c2,1.1,2.6,2.9,2.6,7.7c0,3.8-0.2,4.5-1.3,5.8c-2.2,2.6-5.5,2.6-7.9,0.1c-0.9-1-1.1-1.8-1.1-6c0-5.3,0.4-6.4,2.5-7.5C113.8,40.6,115.4,40.6,117.2,41.5z M143.9,41.6c0.8,0.4,1.7,1.2,2.1,1.7c0.4,0.7,0.5,16.4,0.5,46.9v45.9l-1.3,1.6c-1.1,1.3-1.7,1.6-3.6,1.6c-1.8,0-2.6-0.3-3.8-1.5l-1.5-1.5V90.4c0-49.1-0.1-47.5,2.6-48.9C140.5,40.6,142.1,40.6,143.9,41.6z M117.3,69c1.8,1,2.5,3.3,2.5,8c0,4.2-0.1,4.5-1.5,6c-1.2,1.2-2,1.5-3.8,1.5c-2,0-2.5-0.3-3.6-1.6c-1.2-1.4-1.3-2-1.3-6.5c0-4.7,0.1-4.9,1.5-6.4C112.6,68.4,115.3,68,117.3,69z M118.3,97.7c1.4,1.4,1.5,1.7,1.5,6c0,6.4-1.3,8.5-5.4,8.5c-1.4,0-2.3-0.4-3.4-1.5c-1.4-1.5-1.5-1.7-1.5-6.5s0.1-5,1.5-6.5c1.2-1.2,1.9-1.5,3.6-1.5S117.1,96.5,118.3,97.7z M118.4,125.4c1.3,1.4,1.4,1.9,1.4,5.9c0,4.9-0.6,6.7-2.6,7.7c-1.8,0.9-3.2,0.9-5.1-0.1c-2.2-1.1-2.6-2.2-2.6-7.5c0.1-5.2,0.4-6,2.9-7.3C114.4,123.1,116.7,123.5,118.4,125.4z M133.9,171.7c5.3,1.3,11,6.2,13.5,11.5c1.2,2.7,1.4,3.5,1.4,8.9c0,5.4-0.1,6.2-1.4,8.7c-3.9,7.9-10.8,12.3-19.4,12.3c-8.6,0-15.5-4.4-19.4-12.3c-1.3-2.6-1.4-3.3-1.4-8.7c0-5.3,0.2-6.2,1.4-8.9c1.9-4,6-8.2,9.8-10.1C123.4,170.7,128.2,170.3,133.9,171.7z"/><path fill="#000000" d="M123.6,182.3c-7.2,3.3-8.6,12.7-2.7,17.9c4.3,3.8,10.4,3.5,14.6-0.7c3.2-3.3,4.1-7.7,2.3-11.8C135.3,182.3,128.9,179.9,123.6,182.3z"/></g></g></g>
</svg>