<?xml version="1.0" encoding="utf-8"?>
<!-- Svg Vector Icons : http://www.onlinewebfonts.com/icon -->
<!DOCTYPE svg PUBLIC "-//W3C//DTD SVG 1.1//EN" "http://www.w3.org/Graphics/SVG/1.1/DTD/svg11.dtd">
<svg version="1.1" xmlns="http://www.w3.org/2000/svg" xmlns:xlink="http://www.w3.org/1999/xlink" x="0px" y="0px" viewBox="0 0 256 256" enable-background="new 0 0 256 256" xml:space="preserve">
<metadata> Svg Vector Icons : http://www.onlinewebfonts.com/icon </metadata>
<g><g><g><path fill="#000000" d="M34.6,246c-6.8,0-12.5-2.4-17.4-7.2c-4.8-4.8-7.2-10.6-7.2-17.4V34.6c0-6.7,2.4-12.5,7.2-17.4C22,12.4,27.8,10,34.6,10h186.8c6.7,0,12.5,2.4,17.4,7.2s7.2,10.6,7.2,17.4v186.8c0,6.7-2.4,12.5-7.2,17.4s-10.6,7.2-17.4,7.2H34.6L34.6,246z M116,121h71V59.2l-71,10.3V121z M59,121h51.9V70.3L59,77.7V121z M110.9,177.5V126H59v43.8L110.9,177.5z M187,188.7V126h-71v52.1L187,188.7z"/></g></g></g>
</svg>